<svg width="24" height="24" viewBox="0 0 24 24" fill="none" xmlns="http://www.w3.org/2000/svg">
<path d="M4.38453 18.111H9.40459C9.26125 18.8236 8.82359 19.5541 8.08715 20.2905C7.94213 20.4357 7.89863 20.654 7.97709 20.8436C8.05573 21.0335 8.24072 21.1571 8.44617 21.1571H15.5538C15.759 21.1571 15.9442 21.0335 16.0228 20.8438C16.1013 20.654 16.058 20.4357 15.9128 20.2905C15.1763 19.5541 14.7387 18.8236 14.5953 18.111H19.6152C20.8209 18.1095 21.8598 17.2613 22.1025 16.0803H1.89746C2.14009 17.2613 3.17883 18.1095 4.38453 18.111Z" fill="white"/>
<path d="M19.6152 2.88037H4.38457C2.98329 2.88186 1.84768 4.01747 1.84619 5.41894V15.0649H22.1538V5.41894C22.1523 4.01747 21.0167 2.88186 19.6152 2.88037ZM9.25831 10.0893C9.48253 10.2575 9.52809 10.5755 9.35983 10.7999C9.19175 11.0241 8.87364 11.0696 8.64942 10.9014L6.6186 9.37832C6.49069 9.28257 6.41539 9.13216 6.41539 8.97227C6.41539 8.81256 6.49069 8.66196 6.6186 8.56621L8.64942 7.04315C8.87364 6.87507 9.19175 6.92063 9.35983 7.14485C9.52809 7.36907 9.48253 7.68718 9.25831 7.85525L7.7689 8.97227L9.25831 10.0893ZM13.4973 6.08677L11.4665 12.179C11.3771 12.4443 11.09 12.5873 10.8245 12.4988C10.559 12.4103 10.4151 12.1236 10.5027 11.8578L12.5335 5.7655C12.6227 5.50037 12.91 5.3574 13.1755 5.4459C13.441 5.5344 13.5849 5.82109 13.4973 6.08677ZM17.3812 9.37832L15.3506 10.9014C15.1262 11.0696 14.8082 11.0241 14.64 10.7999C14.4719 10.5755 14.5175 10.2575 14.7417 10.0893L16.2311 8.97245L14.7417 7.85544C14.5175 7.68736 14.4719 7.36925 14.64 7.14503C14.8082 6.92081 15.1262 6.87526 15.3506 7.04333L17.3812 8.5664C17.5093 8.66215 17.5846 8.81275 17.5846 8.97245C17.5846 9.13234 17.5093 9.28275 17.3812 9.3785V9.37832Z" fill="white"/>
</svg>
