<svg width="24" height="24" viewBox="0 0 24 24" fill="none" xmlns="http://www.w3.org/2000/svg">
<path d="M19.82 4.18C17.8 2.16 13.32 2 12 2C10.68 2 6.2 2.16 4.18 4.18C2.16 6.2 2 10.68 2 12C2 13.32 2.16 17.8 4.18 19.82C6.2 21.84 10.68 22 12 22C13.32 22 17.8 21.84 19.82 19.82C21.84 17.8 22 13.32 22 12C22 10.68 21.84 6.2 19.82 4.18ZM14 18H10C9.73478 18 9.48043 17.8946 9.29289 17.7071C9.10536 17.5196 9 17.2652 9 17C9 16.7348 9.10536 16.4804 9.29289 16.2929C9.48043 16.1054 9.73478 16 10 16H14C14.2652 16 14.5196 16.1054 14.7071 16.2929C14.8946 16.4804 15 16.7348 15 17C15 17.2652 14.8946 17.5196 14.7071 17.7071C14.5196 17.8946 14.2652 18 14 18ZM15.71 11.71L12.71 14.71C12.617 14.8037 12.5064 14.8781 12.3846 14.9289C12.2627 14.9797 12.132 15.0058 12 15.0058C11.868 15.0058 11.7373 14.9797 11.6154 14.9289C11.4936 14.8781 11.383 14.8037 11.29 14.71L8.29 11.71C8.1017 11.5217 7.99591 11.2663 7.99591 11C7.99591 10.7337 8.1017 10.4783 8.29 10.29C8.4783 10.1017 8.7337 9.99591 9 9.99591C9.2663 9.99591 9.5217 10.1017 9.71 10.29L11 11.59V7C11 6.73478 11.1054 6.48043 11.2929 6.29289C11.4804 6.10536 11.7348 6 12 6C12.2652 6 12.5196 6.10536 12.7071 6.29289C12.8946 6.48043 13 6.73478 13 7V11.59L14.29 10.29C14.4783 10.1017 14.7337 9.99591 15 9.99591C15.2663 9.99591 15.5217 10.1017 15.71 10.29C15.8983 10.4783 16.0041 10.7337 16.0041 11C16.0041 11.2663 15.8983 11.5217 15.71 11.71Z" fill="white"/>
</svg>
