<svg width="141" height="32" viewBox="0 0 141 32" fill="none" xmlns="http://www.w3.org/2000/svg">
<path d="M0.0226308 31.9275L0.0207449 31.9379H0L0.0226308 31.9275Z" fill="white"/>
<path d="M0.0226308 31.9275L0.0207449 31.9379H0L0.0226308 31.9275Z" fill="white"/>
<path d="M64.7538 11.7539C64.6935 11.3974 64.5832 11.0566 64.422 10.7306C64.2609 10.4046 64.0644 10.1353 63.8334 9.92086C63.6016 9.70731 63.3552 9.6001 63.0941 9.6001H44.1217C44.1415 9.88512 44.2268 10.2007 44.3785 10.5467C44.5293 10.8927 44.7008 11.224 44.8921 11.5395C45.0834 11.855 45.2592 12.1348 45.4203 12.3798C45.5815 12.6238 45.6823 12.7868 45.722 12.8687L42.3999 26.4001H58.9559C59.2179 26.4001 59.5195 26.2929 59.8616 26.0793C60.2037 25.8658 60.5312 25.5956 60.8432 25.2696C61.1551 24.9436 61.4317 24.608 61.6739 24.262C61.9152 23.9159 62.0668 23.6004 62.1272 23.3154L64.7547 12.6857C64.815 12.4207 64.815 12.1104 64.7547 11.7539H64.7538ZM57.8692 14.9154L56.3293 21.0857C56.2888 21.2077 56.2086 21.335 56.088 21.4675C55.9674 21.6 55.8562 21.6662 55.7562 21.6662H49.9204L51.7017 14.3357H57.5375C57.6383 14.3357 57.7288 14.402 57.8098 14.5345C57.8899 14.6669 57.9106 14.7942 57.8701 14.9162L57.8692 14.9154Z" fill="white"/>
<path d="M124.868 9.6001H106.465C106.485 9.88509 106.573 10.2006 106.726 10.5466C106.879 10.8926 107.053 11.2238 107.247 11.5393C107.441 11.8548 107.619 12.1346 107.783 12.3795C107.897 12.5494 107.979 12.6767 108.033 12.7682L104.853 25.4911L101.085 9.60097H90.294C90.3141 9.88597 90.4016 10.2015 90.5546 10.5475C90.7077 10.8935 90.8817 11.2247 91.0759 11.5402C91.27 11.8557 91.4484 12.1354 91.6119 12.3803C91.7414 12.5738 91.8306 12.7141 91.8831 12.8057L82.557 25.4274L79.6351 21.8175H79.9412C80.7178 21.7974 81.3667 21.7007 81.8871 21.5273C82.4083 21.3538 82.8421 21.1046 83.1893 20.7795C83.5365 20.4535 83.8172 20.0465 84.0323 19.5576C84.2475 19.0686 84.4355 18.4986 84.599 17.8476L85.8863 12.6558C85.9476 12.3908 85.9476 12.0805 85.8863 11.7241C85.8251 11.3676 85.7176 11.0321 85.5645 10.7166C85.4115 10.4011 85.2173 10.1361 84.9821 9.92257C84.7468 9.70904 84.4967 9.60184 84.2317 9.60184H67.3986L63.2 26.4001H69.6357L72.6388 14.3361H78.5918C78.6941 14.3361 78.7807 14.4023 78.8524 14.5348C78.9241 14.6673 78.939 14.7841 78.8979 14.886L78.4073 16.8409C78.305 17.207 78.1213 17.3909 77.8555 17.3909H73.3735L72.1631 22.0328L76.0163 26.4001H88.9158L90.3867 24.3842H98.1098L98.6004 26.4001H111.122L112.624 20.3533H120.722L121.917 15.6495H113.819L114.126 14.3361H126.014L123.011 26.4001H129.446L132.449 14.3361H138.004L139.2 9.60184H124.869L124.868 9.6001ZM93.7904 19.6787L96.303 16.2274L97.0691 19.6787H93.7896H93.7904Z" fill="white"/>
<path d="M35.8837 7.51987L34.3862 13.3779L31.2424 25.8775C30.8089 27.5947 29.2634 28.8 27.4902 28.8H4.00244L4 28.7496L22.6643 21.835L20.3583 14.6458L34.8873 4.01544L34.9027 4C35.7893 4.87286 36.2253 6.18783 35.8837 7.51987Z" fill="white"/>
<path d="M34.4 4.2624L34.3849 4.27792L15.5112 11.5001L13.2406 19.9122L4.80005 22.4L9.20276 8.25964C9.14062 8.13214 8.98844 7.88124 8.74146 7.50285C8.49447 7.12446 8.22677 6.69131 7.93517 6.20258C7.64357 5.71386 7.38224 5.20143 7.15278 4.66694C6.92094 4.13 6.79266 3.63964 6.76 3.19995H31.8784C32.8759 3.19995 33.7595 3.6094 34.4 4.2624Z" fill="white"/>
</svg>
