<svg width="24" height="24" viewBox="0 0 24 24" fill="none" xmlns="http://www.w3.org/2000/svg">
<path d="M22.1539 9.59287C22.1574 10.3624 21.7087 11.062 21.0087 11.3783L18.7311 12.4112L17.4587 12.9851L13.8451 14.6302C12.6795 15.1744 11.3335 15.1744 10.1679 14.6302L6.54161 12.9851L5.26922 12.4112L3.99682 11.8246V17.3338C4.18046 17.4494 4.29121 17.6521 4.28947 17.8694V19.183C4.29288 19.5317 4.01356 19.8172 3.6656 19.8206C3.6615 19.8206 3.65739 19.8206 3.65328 19.8206H3.06798C2.72005 19.824 2.43521 19.5441 2.43178 19.1954C2.43174 19.1913 2.43174 19.1871 2.43178 19.183V17.8694C2.43007 17.6521 2.54082 17.4494 2.72443 17.3338V11.4675C2.72359 11.3935 2.73653 11.32 2.7626 11.2507C1.84942 10.6784 1.57208 9.4724 2.14315 8.55714C2.34926 8.22681 2.64916 7.96576 3.00436 7.80748L10.1679 4.55552C11.3354 4.01991 12.6777 4.01991 13.8451 4.55552L21.0087 7.80748C21.7087 8.12374 22.1574 8.8233 22.1539 9.59287ZM14.3668 15.7907C12.8702 16.4879 11.1429 16.4879 9.64625 15.7907L5.26922 13.814V15.4464C5.27204 16.4398 5.73219 17.3764 6.51616 17.9843C9.75739 20.4667 14.2557 20.4667 17.4969 17.9843C18.2776 17.375 18.7332 16.4381 18.7311 15.4465V13.8013L17.9804 14.1457L14.3668 15.7907Z" fill="white"/>
</svg>
