<svg width="124" height="32" viewBox="0 0 124 32" fill="none" xmlns="http://www.w3.org/2000/svg">
<g clip-path="url(#clip0_5_382)">
<path d="M24.8823 17.7221C24.8823 15.5796 22.5719 13.9942 20.9423 12.7678C18.1028 10.6302 16.3738 7.26385 16.0037 5.42676C15.7975 7.26629 13.3654 11.473 11.0626 12.7678C9.28138 13.7694 7.12012 15.5796 7.12012 17.7221C7.12012 20.5657 9.46273 22.8694 12.3544 22.8694C13.6486 22.8694 14.6647 21.9191 15.4671 21.2204C15.4596 21.6552 15.4522 22.0559 15.4422 22.1121C15.0944 24.3425 13.9269 25.6177 12.7643 26.3432C11.778 26.9589 10.7943 27.1812 10.3198 27.2569C12.014 28.1559 13.9467 28.6665 16.0012 28.6665C18.0556 28.6665 20.0355 28.1437 21.7447 27.2251C16.6396 27.3155 15.4919 23.1186 16.0583 21.4769C15.8795 23.8124 17.8072 25.3929 19.253 25.9328C18.1302 25.3636 17.0147 24.2619 16.6545 22.1389C16.6421 22.0754 16.6347 21.7114 16.6247 21.3279C17.3948 22.0143 18.3488 22.8816 19.6505 22.8816C22.5421 22.8816 24.8847 20.5681 24.8847 17.7221H24.8823ZM11.5644 14.0479C10.2502 14.7612 8.6653 15.7116 8.46905 17.3117C8.46905 17.2335 8.46408 17.1553 8.46905 17.0772C8.55351 15.3427 10.29 13.9575 11.701 13.21C13.0648 12.4893 14.0883 11.0577 14.769 9.80207C14.1032 11.3436 13.0325 13.2491 11.5619 14.0479H11.5644ZM16.2397 7.25652C16.3341 8.82489 18.0631 11.4999 20.8355 13.4176C22.2838 14.4168 24.0898 15.7091 24.0898 17.5535C24.0898 18.8947 23.4464 19.9159 22.49 20.7342C23.1607 19.9574 23.6029 19.1243 23.6029 18.0152C23.6029 16.1806 21.9285 15.0275 20.5274 14.0357C17.9339 12.1962 16.0409 9.3599 16.2372 7.25652H16.2397Z" fill="white"/>
<path d="M16.113 28.5225C14.3517 28.5225 12.6028 28.1317 11.0204 27.3841C11.5545 27.2498 12.2649 27.0055 12.9829 26.5584C14.5156 25.6008 15.4472 24.1326 15.7503 22.1929C15.7553 22.1636 15.7627 22.1122 15.7776 21.2768C15.7776 21.1986 15.7329 21.1302 15.6634 21.0984C15.636 21.0862 15.6087 21.0813 15.5814 21.0813C15.5342 21.0813 15.487 21.0984 15.4497 21.1302L15.328 21.2377C14.5678 21.9022 13.6238 22.7303 12.4687 22.7303C9.6913 22.7303 7.43066 20.5072 7.43066 17.776C7.43066 15.3404 10.372 13.496 11.2737 12.9903C13.3655 11.8128 15.4969 8.39023 16.1354 6.30151C16.2223 6.56291 16.3291 6.84873 16.4558 7.14677C16.426 7.12967 16.3937 7.1199 16.3564 7.1199H16.354C16.2521 7.1199 16.1676 7.19563 16.1577 7.29579C15.9615 9.3894 17.7998 12.3136 20.5274 14.2509L20.6069 14.307C21.9733 15.2744 23.5209 16.3713 23.5209 18.0741C23.5209 19.0122 23.193 19.811 22.4552 20.666C22.3881 20.7442 22.3931 20.859 22.4676 20.9299C22.5049 20.9665 22.557 20.9861 22.6067 20.9861C22.6539 20.9861 22.6986 20.9714 22.7359 20.9396C23.8563 19.9796 24.4028 18.8924 24.4028 17.6123C24.4028 15.6213 22.3931 14.2338 21.064 13.3176C18.3016 11.4073 16.6968 8.85683 16.5577 7.37885C17.3452 9.14021 18.8009 11.3706 20.9373 12.9781C21.0392 13.0538 21.141 13.132 21.2479 13.2102C22.8303 14.3925 24.8003 15.8656 24.8003 17.7785C24.8003 20.517 22.5421 22.7425 19.7648 22.7425C18.555 22.7425 17.6358 21.9217 16.898 21.2645L16.8707 21.2401C16.8334 21.2059 16.7862 21.1888 16.739 21.1888C16.7117 21.1888 16.6844 21.1937 16.657 21.2059C16.585 21.2377 16.5403 21.3085 16.5428 21.3867V21.4722C16.5577 21.9559 16.5626 22.1587 16.5751 22.2271C16.7042 22.9942 16.9378 23.6708 17.2682 24.2523C16.6943 23.5585 16.2869 22.6546 16.3714 21.5455C16.3788 21.4478 16.3117 21.3598 16.2148 21.3403C16.2024 21.3378 16.1875 21.3354 16.1751 21.3354C16.0931 21.3354 16.0161 21.3867 15.9888 21.4673C15.6758 22.3736 15.8596 23.9713 16.8111 25.2759C17.4843 26.1993 18.7587 27.284 21.074 27.4501C19.5288 28.1537 17.8296 28.525 16.1204 28.525L16.113 28.5225ZM14.8858 9.65812C14.8162 9.65812 14.7467 9.69476 14.7119 9.76072C14.1033 10.8796 13.0922 12.3673 11.7234 13.0905C10.9682 13.4911 8.49142 14.9642 8.38709 17.1189C8.3846 17.1751 8.38709 17.2312 8.38709 17.2874V17.3632C8.38709 17.4658 8.46907 17.5513 8.5734 17.5562C8.57837 17.5562 8.58086 17.5562 8.58582 17.5562C8.68519 17.5562 8.76966 17.4829 8.78208 17.3852C8.96342 15.9096 10.4217 15.0033 11.778 14.268C13.3108 13.4349 14.4138 11.4488 15.0696 9.92684C15.1119 9.83157 15.0696 9.72164 14.9727 9.67522C14.9454 9.663 14.9156 9.65568 14.8883 9.65568L14.8858 9.65812Z" fill="white"/>
<path d="M17.7527 7.06119C22.5248 7.89423 26.1667 11.9568 26.1667 16.8818C26.1667 20.8247 23.834 24.2229 20.4555 25.8474C21.2728 26.2261 23.0515 26.4069 23.0515 26.4069C26.05 24.2595 28.0001 20.7808 28.0001 16.8647C28.0001 10.8746 23.439 5.91789 17.5539 5.16546C17.3825 5.14347 16.7341 3.97575 16.4683 3.33325C16.3267 4.99934 17.0099 6.3625 17.7552 7.06119H17.7527Z" fill="white"/>
<path d="M8.95849 26.4143C8.95849 26.4143 10.7968 26.2286 11.5918 25.872C8.18839 24.2547 5.83335 20.8322 5.83335 16.8721C5.83335 12.018 9.36839 8.00182 14.0387 7.09793C14.143 7.07839 14.0412 7.89189 13.7356 8.58569C14.4635 7.91632 15.1964 6.45788 15.169 5.10693C14.8833 5.12648 14.4859 5.15579 14.2052 5.19732C8.50885 6.00349 4 10.9602 4 16.8648C4 20.7857 5.95508 24.2669 8.95849 26.4143Z" fill="white"/>
<path d="M23.0888 26.17C22.7956 26.1358 21.951 26.0283 21.2753 25.8475C24.5544 24.0227 26.5642 20.6636 26.5642 16.9332C26.5642 11.9863 22.9695 7.76243 18.0036 6.85365C17.5614 6.41392 17.1068 5.65661 16.9254 4.69409C17.1639 5.10206 17.4297 5.46362 17.6309 5.49049C23.4465 6.23315 27.8311 11.1435 27.8311 16.9137C27.8311 20.5439 26.0599 23.9958 23.0863 26.1676L23.0888 26.17Z" fill="white"/>
<path d="M9.15225 26.1774C6.17119 24.0056 4.39746 20.5513 4.39746 16.9162C4.39746 11.2265 8.68273 6.32843 14.3641 5.51737C14.5504 5.4905 14.7964 5.46852 14.9976 5.45386C14.9579 6.08658 14.7517 6.73885 14.4734 7.29339C14.4734 7.1688 14.4536 7.0491 14.4113 6.98558C14.3542 6.90008 14.2598 6.82924 14.1579 6.82924H14.1306L14.1008 6.85366C9.21435 7.79908 5.66689 12.0352 5.66689 16.9113C5.66689 20.6026 7.73625 24.0496 10.9881 25.8598C10.3074 26.0308 9.44787 26.1432 9.15225 26.1774Z" fill="white"/>
<g style="mix-blend-mode:screen" opacity="0.5">
<path d="M21.0615 13.3101C22.3906 14.2287 24.4003 15.6138 24.4003 17.6048C24.4003 18.4501 24.1594 19.2123 23.6749 19.9085C23.8116 20.0478 23.9457 20.187 24.0774 20.3287C24.5345 19.5812 24.7978 18.7066 24.7978 17.771C24.7978 15.8581 22.8278 14.385 21.2454 13.2026C21.141 13.1245 21.0367 13.0463 20.9348 12.9706C18.7984 11.3631 17.3427 9.1327 16.5552 7.37134C16.6943 8.84932 18.2966 11.3973 21.0615 13.3101Z" fill="white"/>
</g>
<g style="mix-blend-mode:screen" opacity="0.5">
<path d="M11.4426 13.2468C11.5495 13.1833 11.6464 13.132 11.7234 13.0905C13.0922 12.3673 14.1032 10.8796 14.7119 9.76073C14.7467 9.69477 14.8162 9.65812 14.8858 9.65812C14.9156 9.65812 14.9429 9.66545 14.9702 9.67767C15.0646 9.72164 15.1069 9.83401 15.0671 9.92929C14.5579 11.1092 13.7778 12.5701 12.7344 13.5546C16.662 14.6075 20.2939 16.6352 23.2302 19.4714C23.4265 19.0244 23.5209 18.5651 23.5209 18.0692C23.5209 16.3689 21.9732 15.272 20.6069 14.3022L20.5274 14.246C17.7998 12.3112 15.9614 9.38451 16.1577 7.29091C16.1676 7.19075 16.2521 7.11502 16.3539 7.11502H16.3564C16.3937 7.11502 16.426 7.12479 16.4558 7.14189C16.3291 6.84385 16.2223 6.55803 16.1353 6.29663C15.4969 8.38535 13.3654 11.8104 11.2737 12.9854C11.1942 13.0294 11.0973 13.088 10.988 13.154C11.1396 13.1833 11.2936 13.215 11.4451 13.2468H11.4426Z" fill="white"/>
</g>
<g style="mix-blend-mode:screen" opacity="0.5">
<path d="M26.5617 16.9332C26.5617 18.6702 26.1245 20.3265 25.3295 21.7849C25.6102 22.1392 25.876 22.5007 26.1344 22.8696C27.2275 21.0911 27.8311 19.0342 27.8311 16.9161C27.8311 11.1459 23.4465 6.23559 17.6309 5.49293C17.4297 5.46606 17.1639 5.1045 16.9254 4.69653C17.1068 5.65905 17.5614 6.41637 18.0036 6.8561C22.9695 7.76487 26.5642 11.9887 26.5642 16.9357L26.5617 16.9332Z" fill="white"/>
<path d="M6.46931 12.7265C6.50906 12.7265 6.54632 12.7265 6.58607 12.7265C7.94245 9.77054 10.6974 7.51326 14.1008 6.85366L14.1306 6.82924H14.158C14.2598 6.82924 14.3542 6.90008 14.4113 6.98558C14.4536 7.0491 14.4735 7.17125 14.4735 7.29339C14.7517 6.7364 14.9579 6.08658 14.9976 5.45386C14.7964 5.47096 14.5505 5.49294 14.3641 5.51737C10.136 6.11834 6.68047 8.9888 5.18994 12.7607C5.61474 12.7387 6.04203 12.7265 6.46683 12.7265H6.46931Z" fill="white"/>
</g>
</g>
<path d="M44.72 23.5841L41.3239 18.9184H40.2331V23.5841H36.7341V10.144H43.1557C44.6788 10.144 45.8794 10.5472 46.7576 11.3536C47.6495 12.1472 48.0954 13.2416 48.0954 14.6368C48.0954 16.6976 47.1349 18.0224 45.2139 18.6112L49.001 23.5841H44.72ZM44.5553 14.6752C44.5553 13.728 43.9584 13.2544 42.7647 13.2544H40.2331V16.0576H42.7647C43.9584 16.0576 44.5553 15.5968 44.5553 14.6752Z" fill="white"/>
<path d="M60.3707 23.5841L59.3416 20.8H53.9491L52.92 23.5841H49.2152L54.4431 10.144H58.8476L64.0755 23.5841H60.3707ZM55.1017 17.6896H58.189L56.6453 13.504L55.1017 17.6896Z" fill="white"/>
<path d="M71.3916 10.144C72.9558 10.144 74.2113 10.5472 75.1581 11.3536C76.1049 12.16 76.5782 13.2928 76.5782 14.752C76.5782 16.2112 76.098 17.3568 75.1375 18.1888C74.1907 19.0208 72.9421 19.4368 71.3916 19.4368H68.7159V23.5841H65.217V10.144H71.3916ZM71.2475 16.3264C72.4413 16.3264 73.0381 15.8144 73.0381 14.7904C73.0381 13.7664 72.4413 13.2544 71.2475 13.2544H68.7159V16.3264H71.2475Z" fill="white"/>
<path d="M78.7307 14.368C79.8833 13.3056 81.2829 12.7744 82.9294 12.7744C84.576 12.7744 85.9756 13.3056 87.1282 14.368C88.2808 15.4176 88.857 16.7296 88.857 18.304C88.857 19.8912 88.2876 21.2097 87.1487 22.2593C86.0099 23.3089 84.6034 23.8337 82.9294 23.8337C81.2691 23.8337 79.8627 23.3089 78.7101 22.2593C77.5712 21.1969 77.0018 19.8784 77.0018 18.304C77.0018 16.7296 77.5781 15.4176 78.7307 14.368ZM84.6377 16.5568C84.1849 16.1088 83.6155 15.8848 82.9294 15.8848C82.2433 15.8848 81.6739 16.1088 81.2211 16.5568C80.7683 17.0048 80.5419 17.5872 80.5419 18.304C80.5419 19.0336 80.7683 19.6224 81.2211 20.0704C81.6739 20.5056 82.2433 20.7232 82.9294 20.7232C83.6155 20.7232 84.1849 20.5056 84.6377 20.0704C85.0905 19.6224 85.3169 19.0336 85.3169 18.304C85.3169 17.5872 85.0905 17.0048 84.6377 16.5568Z" fill="white"/>
<path d="M101.911 23.5841H97.4861L93.4932 19.2448V23.5841H89.9942V8.80005H93.4932V17.2288L97.2185 13.024H101.644L96.8069 18.0544L101.911 23.5841Z" fill="white"/>
<path d="M106.851 12.7744C108.703 12.7744 110.185 13.376 111.296 14.5792C112.408 15.7696 112.874 17.2416 112.696 18.9952H104.442C104.525 19.7632 104.792 20.3457 105.245 20.7425C105.712 21.1265 106.274 21.3184 106.933 21.3184C107.413 21.3184 107.832 21.216 108.188 21.0112C108.545 20.7936 108.792 20.4992 108.929 20.128H112.531C112.161 21.3696 111.461 22.2977 110.432 22.9121C109.416 23.5265 108.25 23.8337 106.933 23.8337C105.149 23.8337 103.695 23.3089 102.57 22.2593C101.444 21.2097 100.882 19.8912 100.882 18.304C100.882 16.7296 101.438 15.4176 102.549 14.368C103.674 13.3056 105.108 12.7744 106.851 12.7744ZM106.83 15.2896C105.636 15.2896 104.875 15.8656 104.545 17.0176H109.053C108.929 16.4928 108.676 16.0768 108.291 15.7696C107.921 15.4496 107.434 15.2896 106.83 15.2896Z" fill="white"/>
<path d="M120.362 12.7744C120.623 12.7744 120.836 12.7936 121 12.832V16.192C120.699 16.1664 120.465 16.1536 120.301 16.1536C119.848 16.1536 119.443 16.192 119.086 16.2688C118.743 16.3456 118.407 16.4864 118.078 16.6912C117.748 16.8832 117.495 17.1776 117.316 17.5744C117.152 17.9584 117.069 18.4384 117.069 19.0144V23.5841H113.57V13.024H117.069V14.656C117.755 13.4016 118.853 12.7744 120.362 12.7744Z" fill="white"/>
<defs>
<clipPath id="clip0_5_382">
<rect width="24" height="25.3333" fill="white" transform="translate(4 3.33325)"/>
</clipPath>
</defs>
</svg>
