<svg width="24" height="24" viewBox="0 0 24 24" fill="none" xmlns="http://www.w3.org/2000/svg">
<path d="M19.89 10.105C19.6739 9.59568 19.4097 9.10814 19.101 8.649L17.443 9.768C17.921 10.4783 18.2562 11.2747 18.43 12.113C18.6062 12.9869 18.6062 13.8871 18.43 14.761C18.3432 15.183 18.2145 15.5954 18.046 15.992C17.8822 16.3817 17.6803 16.7542 17.443 17.104C16.9682 17.8023 16.3656 18.4045 15.667 18.879C14.9574 19.3567 14.1616 19.692 13.324 19.866C12.4508 20.0419 11.5513 20.0419 10.678 19.866C9.42109 19.6078 8.26769 18.986 7.36103 18.078C6.76203 17.4788 6.284 16.7699 5.95303 15.99C5.7859 15.5934 5.65796 15.1815 5.57103 14.76C5.30724 13.4586 5.44032 12.1079 5.95303 10.883C6.28392 10.1039 6.7616 9.39567 7.36003 8.797C7.9587 8.19857 8.6669 7.72089 9.44603 7.39C9.84103 7.223 10.256 7.094 10.676 7.008C10.783 6.986 10.892 6.976 11 6.959V10L16 6L11 2V4.938C10.757 4.96513 10.5151 5.00216 10.275 5.049C9.17909 5.27326 8.1382 5.71164 7.21203 6.339C5.56652 7.44902 4.35756 9.09605 3.79177 10.9986C3.22598 12.9012 3.33848 14.9412 4.11003 16.77C4.53879 17.7887 5.16209 18.7139 5.94503 19.494C6.726 20.2739 7.64981 20.8963 8.66603 21.327C10.2634 22.0028 12.0285 22.1768 13.727 21.826C15.0866 21.5447 16.3575 20.9376 17.4308 20.057C18.5041 19.1763 19.3476 18.0484 19.889 16.77C20.109 16.25 20.278 15.709 20.389 15.162C20.6221 14.0238 20.6221 12.8502 20.389 11.712C20.275 11.1615 20.1079 10.6233 19.89 10.105Z" fill="white"/>
</svg>
