<svg width="52" height="52" viewBox="0 0 52 52" fill="none" xmlns="http://www.w3.org/2000/svg">
<path d="M42.9103 8.77439L44.0398 12.1941C44.0554 12.2409 44.0928 12.2783 44.1396 12.2939L47.5593 13.4234C47.7028 13.4702 47.7028 13.673 47.5593 13.7198L44.1396 14.8493C44.0928 14.8649 44.0554 14.9024 44.0398 14.9492L42.9103 18.3689C42.8635 18.5124 42.6607 18.5124 42.6138 18.3689L41.4844 14.9492C41.4688 14.9024 41.4313 14.8649 41.3845 14.8493L37.9648 13.7198C37.8213 13.673 37.8213 13.4702 37.9648 13.4234L41.3845 12.2939C41.4313 12.2783 41.4688 12.2409 41.4844 12.1941L42.6138 8.77439C42.6607 8.63087 42.8635 8.63087 42.9103 8.77439Z" fill="#5863F8"/>
<path d="M26.6987 36.6369C26.5115 37.2921 26.4179 37.9286 26.4179 38.5558C26.4179 39.3764 26.5677 40.0035 26.8703 40.4341C27.1449 40.8241 27.5661 41.1081 28.134 41.2859L26.6987 36.6369ZM24.2151 28.5994L23.8313 27.3544L23.591 26.5713C22.9108 26.7803 22.3086 27.108 21.7876 27.5604C20.8266 28.3935 20.3461 29.3326 20.3461 30.381C20.3461 31.4294 20.655 32.2687 21.2759 32.899C21.8874 33.5324 22.5926 33.8444 23.3851 33.8444C24.1776 33.8444 24.8547 33.5854 25.4288 33.0737C25.4756 33.0331 25.5193 32.9894 25.5567 32.9458L24.2151 28.5994Z" fill="white"/>
<path d="M32.3149 41.723C30.6519 41.723 29.3164 41.5951 28.3118 41.3392C28.2525 41.3236 28.1932 41.3049 28.1339 41.2862C27.566 41.1084 27.1448 40.8244 26.8702 40.4344C26.5676 40.0038 26.4178 39.3767 26.4178 38.5561C26.4178 37.9289 26.5114 37.2924 26.6986 36.6372L26.2743 35.2674L25.5567 32.946C25.5192 32.9897 25.4755 33.0334 25.4287 33.074C24.8546 33.5857 24.1713 33.8446 23.385 33.8446C22.5987 33.8446 21.8874 33.5326 21.2758 32.8992C20.6549 32.269 20.346 31.4265 20.346 30.3813C20.346 29.336 20.8265 28.3937 21.7875 27.5606C22.3086 27.1082 22.9108 26.7806 23.591 26.5716L19.5753 13.573H19.4443C18.5301 13.573 17.8655 13.9755 17.463 14.7774C17.2945 15.0925 17.1042 15.5668 16.9045 16.197L13.1572 27.024C11.9559 26.5466 10.7328 26.3095 9.50035 26.3095C8.00891 26.3095 6.77957 26.7307 5.81857 27.5606C4.85756 28.3937 4.38018 29.3329 4.38018 30.3813C4.38018 31.4296 4.68595 32.269 5.30686 32.8992C5.91841 33.5326 6.62357 33.8446 7.41609 33.8446C8.2086 33.8446 8.88568 33.5857 9.45979 33.074C10.0308 32.5529 10.3209 31.8945 10.3209 31.0895C10.3209 30.2845 10.1025 29.673 9.67196 29.2362C9.24137 28.8056 8.71095 28.5934 8.08068 28.5934C7.07599 28.5934 6.39892 29.0427 6.05882 29.9288C5.97146 30.1597 5.83105 30.2689 5.62824 30.2689C5.33806 30.2689 5.22886 30.1317 5.2819 29.8384C5.39423 28.9803 5.88721 28.3095 6.74525 27.8196C7.60641 27.3329 8.65479 27.0864 9.89037 27.0864C10.8295 27.0864 11.8342 27.311 12.9013 27.7635L9.89037 36.4687C9.28818 38.2784 8.58926 39.6076 7.80298 40.45C7.01359 41.2987 5.85913 41.723 4.33337 41.723V42.4095H17.0761V41.723H16.346C14.6829 41.723 13.3475 41.5951 12.3428 41.3392C11.6845 41.1645 11.204 40.865 10.9013 40.4344C10.5986 40.0038 10.4489 39.3767 10.4489 38.5561C10.4489 37.7355 10.6049 36.9055 10.9231 36.0381L13.6502 28.1129C13.7375 28.1535 13.828 28.1972 13.9154 28.2471C15.3631 29.024 16.6299 30.0412 17.7251 31.3079C19.8811 33.7198 21.5223 36.2628 22.6393 38.9305L23.2477 40.9149C22.4989 41.4516 21.5192 41.723 20.3054 41.723V42.4095H33.045V41.723H32.3149ZM17.3132 29.673C16.1993 28.6777 15.0605 27.9007 13.9122 27.3547L16.5176 19.7727H16.7765L21.3226 34.6216C20.165 32.6715 18.8296 31.024 17.3132 29.673Z" fill="white"/>
<path d="M44.2362 41.723L35.5403 13.573H35.4124C34.4982 13.573 33.8336 13.9755 33.4311 14.7774C33.2626 15.0925 33.0723 15.5668 32.8726 16.197L29.1253 27.024C27.924 26.5466 26.7009 26.3095 25.4685 26.3095C24.7883 26.3095 24.1611 26.3968 23.5902 26.5716C22.91 26.7806 22.3078 27.1082 21.7867 27.5606C20.8257 28.3937 20.3452 29.3329 20.3452 30.3813C20.3452 31.4296 20.6541 32.269 21.275 32.8992C21.8865 33.5326 22.5917 33.8446 23.3842 33.8446C24.1767 33.8446 24.8538 33.5857 25.4279 33.074C25.4747 33.0334 25.5184 32.9897 25.5559 32.946C26.0426 32.4468 26.2891 31.829 26.2891 31.0895C26.2891 30.2877 26.0707 29.673 25.6401 29.2362C25.247 28.843 24.7727 28.634 24.2142 28.5997C24.1611 28.5965 24.105 28.5934 24.0488 28.5934C23.0441 28.5934 22.3671 29.0427 22.027 29.9288C21.9396 30.1597 21.7992 30.2689 21.5964 30.2689C21.3062 30.2689 21.197 30.1317 21.25 29.8384C21.3624 28.9803 21.8553 28.3095 22.7134 27.8196C23.0566 27.6262 23.4279 27.4702 23.8304 27.3547C24.4388 27.1769 25.1159 27.0864 25.8585 27.0864C26.7977 27.0864 27.8024 27.311 28.8695 27.7635L26.2735 35.2674L26.6978 36.6372C26.754 36.4375 26.8164 36.2378 26.8913 36.0381L29.6183 28.1129C29.7057 28.1535 29.7961 28.1972 29.8835 28.2471C31.3313 29.024 32.598 30.0412 33.6932 31.3079C35.8492 33.7198 37.4904 36.2628 38.6075 38.9305L39.4624 41.723H36.2736V42.4095H47.2971V41.723H44.2362ZM33.2813 29.673C32.1675 28.6777 31.0286 27.9007 29.8804 27.3547L32.4857 19.7727H32.7447L37.2907 34.6216C36.1332 32.6715 34.7977 31.024 33.2813 29.673ZM20.3015 41.723V42.4095H20.3046V41.723H20.3015Z" fill="#5863F8"/>
</svg>
