<svg width="24" height="24" viewBox="0 0 24 24" fill="none" xmlns="http://www.w3.org/2000/svg">
<path d="M7.40049 4.3889L5.66876 3.80872L5.09116 2.06923C4.99271 1.77185 4.50187 1.77185 4.40342 2.06923L3.82582 3.80872L2.09409 4.3889C1.94606 4.43834 1.84619 4.57743 1.84619 4.73431C1.84619 4.89118 1.94606 5.03027 2.09409 5.07971L3.82582 5.6599L4.40342 7.39938C4.45265 7.54808 4.59112 7.64839 4.74729 7.64839C4.90347 7.64839 5.04193 7.54808 5.09116 7.39938L5.66876 5.6599L7.40049 5.07971C7.54852 5.03027 7.64839 4.89118 7.64839 4.73431C7.64839 4.57743 7.54852 4.43834 7.40049 4.3889Z" fill="white"/>
<path d="M10.3016 15.268L8.56988 14.6879L7.99228 12.9484C7.89383 12.651 7.403 12.651 7.30455 12.9484L6.72695 14.6879L4.99521 15.268C4.84718 15.3175 4.74731 15.4566 4.74731 15.6135C4.74731 15.7703 4.84718 15.9094 4.99521 15.9589L6.72695 16.539L7.30455 18.2785C7.35377 18.4272 7.49224 18.5275 7.64841 18.5275C7.80459 18.5275 7.94306 18.4272 7.99228 18.2785L8.56988 16.539L10.3016 15.9589C10.4496 15.9094 10.5495 15.7703 10.5495 15.6135C10.5495 15.4566 10.4496 15.3175 10.3016 15.268Z" fill="white"/>
<path d="M13.928 8.74046L12.1962 8.16028L11.6186 6.42079C11.5202 6.12341 11.0293 6.12341 10.9309 6.42079L10.3533 8.16028L8.62155 8.74046C8.47352 8.78991 8.37366 8.929 8.37366 9.08587C8.37366 9.24274 8.47352 9.38183 8.62155 9.43128L10.3533 10.0115L10.9309 11.7509C10.9801 11.8996 11.1186 12 11.2748 12C11.4309 12 11.5694 11.8996 11.6186 11.7509L12.1962 10.0115L13.928 9.43128C14.076 9.38183 14.1759 9.24274 14.1759 9.08587C14.1759 8.929 14.076 8.78991 13.928 8.74046Z" fill="white"/>
<path d="M9.93895 21.305L10.3112 20.561C10.467 20.249 10.5495 19.8998 10.5495 19.5513C10.5559 17.9372 11.471 16.5394 12.9371 15.9005L14.8532 11.9437L15.7716 9.38437L15.79 9.34613C16.6422 7.63529 17.9186 6.20054 19.491 5.16256C17.6343 3.12954 14.9704 1.84619 12 1.84619C10.038 1.84619 8.2124 2.41206 6.65955 3.3758L7.63068 3.70117C8.07513 3.8499 8.37366 4.26495 8.37366 4.73419C8.37366 5.20342 8.07513 5.61882 7.63068 5.76756L6.24282 6.23254L5.7796 7.62785C5.63193 8.07371 5.21723 8.37366 4.74729 8.37366C4.27735 8.37366 3.86265 8.07371 3.71498 7.62714L3.38731 6.64065C2.4164 8.19748 1.84619 10.0301 1.84619 12C1.84619 16.8647 5.26907 20.9252 9.83643 21.9175C9.81208 21.7109 9.84276 21.4975 9.93895 21.305ZM8.39137 8.05281L9.77924 7.58783L10.2425 6.19253C10.3848 5.76225 10.7999 5.47256 11.2748 5.47256C11.7497 5.47256 12.1647 5.76225 12.3071 6.19324L12.7703 7.58783L14.1582 8.05281C14.6026 8.20155 14.9011 8.6166 14.9011 9.08583C14.9011 9.55507 14.6026 9.97047 14.1582 10.1192L12.7703 10.5842L12.3071 11.9795C12.1594 12.4254 11.7447 12.7253 11.2748 12.7253C10.8048 12.7253 10.3901 12.4254 10.2425 11.9788L9.77924 10.5842L8.39137 10.1192C7.94693 9.97047 7.64839 9.55507 7.64839 9.08583C7.64839 8.6166 7.94693 8.20155 8.39137 8.05281ZM7.64839 19.2528C7.17845 19.2528 6.76375 18.9528 6.61608 18.5063L6.15286 17.1117L4.765 16.6467C4.32055 16.4979 4.02202 16.0825 4.02202 15.6133C4.02202 15.1441 4.32055 14.729 4.765 14.5803L6.15286 14.1153L6.61608 12.72C6.75844 12.2897 7.17349 12 7.64839 12C8.12329 12 8.53834 12.2897 8.6807 12.7207L9.14391 14.1153L10.5318 14.5803C10.9762 14.729 11.2748 15.1441 11.2748 15.6133C11.2748 16.0825 10.9762 16.4979 10.5318 16.6467L9.14391 17.1117L8.6807 18.507C8.53303 18.9528 8.11833 19.2528 7.64839 19.2528Z" fill="white"/>
<path d="M15.4118 12.4614L13.6816 16.1431L15.689 17.4813L18.1364 14.2776L15.4118 12.4614Z" fill="white"/>
<path d="M22.0187 5.05081C21.9988 4.93218 21.9216 4.83125 21.8133 4.78097C21.7028 4.73068 21.5767 4.7367 21.4747 4.79938L20.2507 5.53385C18.6187 6.51266 17.3069 7.92883 16.4399 9.66938L15.6427 11.89L18.5998 13.8613C19.9785 12.8903 21.0261 11.5662 21.5618 10.0809C22.1412 8.47455 22.2992 6.73541 22.0187 5.05081Z" fill="white"/>
<path d="M13.2269 16.5652C12.0447 17.08 11.2802 18.2254 11.2747 19.5509C11.2747 20.0113 11.166 20.4724 10.9599 20.885L10.5877 21.629C10.5204 21.7636 10.5434 21.9257 10.645 22.0366C10.7152 22.1127 10.8126 22.1538 10.9121 22.1538C10.9574 22.1538 11.0031 22.1453 11.0467 22.128L13.2326 21.2536C14.2469 20.8478 15.0275 20.0205 15.3873 18.9273L15.5237 18.0962L13.2269 16.5652Z" fill="white"/>
</svg>
