<svg width="24" height="24" viewBox="0 0 24 24" fill="none" xmlns="http://www.w3.org/2000/svg">
<path d="M6.009 6.5C6.009 5.70888 6.2436 4.93552 6.68312 4.27772C7.12265 3.61992 7.74736 3.10723 8.47827 2.80448C9.20917 2.50173 10.0134 2.42252 10.7894 2.57686C11.5653 2.7312 12.278 3.11216 12.8374 3.67157C13.3968 4.23098 13.7778 4.94372 13.9321 5.71964C14.0865 6.49556 14.0073 7.29983 13.7045 8.03074C13.4018 8.76164 12.8891 9.38635 12.2313 9.82588C11.5735 10.2654 10.8001 10.5 10.009 10.5C8.94813 10.5 7.93072 10.0786 7.18057 9.32843C6.43043 8.57828 6.009 7.56087 6.009 6.5ZM13.1 18.82C12.8351 18.5729 12.6463 18.2553 12.556 17.9045C12.4656 17.5536 12.4774 17.1843 12.59 16.84C12.6995 16.4909 12.9063 16.1803 13.1862 15.9448C13.4661 15.7092 13.8074 15.5583 14.17 15.51L15.42 15.33C15.42 15.33 15.62 15.311 15.68 15.19L16.08 14.39C16.112 14.3321 16.126 14.2659 16.12 14.2C16.1075 14.1436 16.0799 14.0918 16.04 14.05C15.5141 13.5212 14.8822 13.1096 14.1859 12.8425C13.4896 12.5753 12.7447 12.4586 12 12.5H8C3.94 12.5 2.5 15.47 2.5 18.02C2.5 20.3 3.71 21.5 6 21.5H13.59C13.75 21.5 13.852 21.38 13.9 21.12L14.1 19.97C14.1107 19.9211 14.108 19.8701 14.0922 19.8226C14.0763 19.7751 14.0479 19.7327 14.01 19.7L13.1 18.82ZM21.867 17.739C21.9261 17.6821 21.968 17.6096 21.9877 17.5299C22.0074 17.4502 22.0041 17.3666 21.9783 17.2887C21.9524 17.2107 21.9051 17.1417 21.8417 17.0896C21.7783 17.0374 21.7014 17.0043 21.62 16.994L19.628 16.711C19.557 16.7012 19.4895 16.6743 19.4311 16.6327C19.3728 16.591 19.3254 16.5359 19.293 16.472L18.429 14.76C18.3885 14.6815 18.3272 14.6157 18.2518 14.5697C18.1764 14.5238 18.0898 14.4995 18.0015 14.4995C17.9132 14.4995 17.8266 14.5238 17.7512 14.5697C17.6758 14.6157 17.6145 14.6815 17.574 14.76L16.711 16.472C16.6785 16.5359 16.6311 16.5909 16.5728 16.6326C16.5145 16.6742 16.447 16.7011 16.376 16.711L14.384 16.994C14.3023 17.0039 14.2252 17.0369 14.1615 17.089C14.0979 17.1411 14.0504 17.2102 14.0245 17.2882C13.9986 17.3663 13.9954 17.4501 14.0153 17.5299C14.0353 17.6098 14.0775 17.6823 14.137 17.739L15.577 19.113C15.6289 19.162 15.6678 19.2231 15.6903 19.2908C15.7128 19.3585 15.7182 19.4307 15.706 19.501L15.377 21.38C15.3631 21.4671 15.3738 21.5564 15.4078 21.6377C15.4419 21.7191 15.498 21.7893 15.5698 21.8406C15.6416 21.8918 15.7263 21.922 15.8143 21.9277C15.9023 21.9334 15.9902 21.9145 16.068 21.873L17.795 20.985C17.859 20.9519 17.93 20.9347 18.002 20.9347C18.074 20.9347 18.145 20.9519 18.209 20.985L19.937 21.874C20.0148 21.9152 20.1026 21.9339 20.1904 21.9281C20.2783 21.9222 20.3627 21.892 20.4344 21.8408C20.506 21.7896 20.562 21.7195 20.596 21.6383C20.63 21.557 20.6408 21.468 20.627 21.381L20.3 19.5C20.2878 19.4298 20.2932 19.3577 20.3155 19.29C20.3378 19.2223 20.3765 19.1612 20.428 19.112L21.867 17.739Z" fill="white"/>
</svg>
