<svg width="24" height="24" viewBox="0 0 24 24" fill="none" xmlns="http://www.w3.org/2000/svg">
<path d="M20.4615 6.07707H16.2308V5.23089C16.2308 4.29757 15.4718 3.53857 14.5385 3.53857H9.46155C8.52823 3.53857 7.76924 4.29753 7.76924 5.23089V6.07703H3.53851C2.60515 6.07707 1.84619 6.83602 1.84619 7.76934V10.3078C1.84619 11.2412 2.60515 12.0001 3.53851 12.0001H10.3077V11.577C10.3077 11.3432 10.497 11.1539 10.7308 11.1539H13.2693C13.5031 11.1539 13.6924 11.3432 13.6924 11.577V12.0001H20.4616C21.3949 12.0001 22.1538 11.2412 22.1538 10.3078V7.76934C22.1538 6.83602 21.3949 6.07707 20.4615 6.07707ZM14.5385 6.07707H9.46155V5.23089H14.5385V6.07707Z" fill="white"/>
<path d="M21.9191 12.4565C21.775 12.3851 21.6027 12.4016 21.4754 12.4983C21.1746 12.7259 20.8242 12.8462 20.4615 12.8462H13.6923V14.1154C13.6923 14.3492 13.5031 14.5385 13.2692 14.5385H10.7308C10.4969 14.5385 10.3077 14.3492 10.3077 14.1154V12.8462H3.53851C3.17575 12.8462 2.8254 12.7259 2.52459 12.4983C2.39692 12.4008 2.22506 12.3842 2.08084 12.4565C1.9371 12.5281 1.84619 12.6747 1.84619 12.8354V18.7692C1.84619 19.7026 2.60515 20.4616 3.53851 20.4616H20.4615C21.3949 20.4616 22.1539 19.7026 22.1539 18.7692V12.8354C22.1538 12.6747 22.0629 12.5281 21.9191 12.4565Z" fill="white"/>
</svg>
